<svg width="59" height="59" viewBox="0 0 59 59" fill="none" xmlns="http://www.w3.org/2000/svg">
<g clip-path="url(#clip0_4_32)">
<rect width="59" height="59" fill="white"/>
<path d="M49.1668 51.625V46.7083C49.1668 44.1004 48.1308 41.5992 46.2867 39.7551C44.4426 37.911 41.9415 36.875 39.3335 36.875H19.6668C17.0589 36.875 14.5577 37.911 12.7136 39.7551C10.8695 41.5992 9.8335 44.1004 9.8335 46.7083V51.625" stroke="black" stroke-width="2" stroke-linecap="round" stroke-linejoin="round"/>
<path d="M29.4998 27.0417C34.9306 27.0417 39.3332 22.6391 39.3332 17.2083C39.3332 11.7775 34.9306 7.375 29.4998 7.375C24.069 7.375 19.6665 11.7775 19.6665 17.2083C19.6665 22.6391 24.069 27.0417 29.4998 27.0417Z" stroke="black" stroke-width="2" stroke-linecap="round" stroke-linejoin="round"/>
</g>
<defs>
<clipPath id="clip0_4_32">
<rect width="59" height="59" fill="white"/>
</clipPath>
</defs>
</svg>
