<svg width="34" height="38" viewBox="0 0 34 38" fill="none" xmlns="http://www.w3.org/2000/svg">
<path d="M27.6667 11.6667C27.6667 8.83769 26.5429 6.12458 24.5425 4.12419C22.5421 2.12381 19.829 1 17 1C14.171 1 11.4579 2.12381 9.45753 4.12419C7.45714 6.12458 6.33333 8.83769 6.33333 11.6667C6.33333 24.1111 1 27.6667 1 27.6667H33C33 27.6667 27.6667 24.1111 27.6667 11.6667Z" stroke="white" stroke-width="2" stroke-linecap="round" stroke-linejoin="round"/>
<path d="M20.0757 34.7778C19.7631 35.3166 19.3145 35.7639 18.7747 36.0748C18.235 36.3857 17.623 36.5493 17.0001 36.5493C16.3772 36.5493 15.7653 36.3857 15.2255 36.0748C14.6857 35.7639 14.2371 35.3166 13.9246 34.7778" stroke="white" stroke-width="2" stroke-linecap="round" stroke-linejoin="round"/>
</svg>
